# xmcd
#
# Track frame offsets: 
#        150
#        22872
#        45472
#        72822
#        93415
#        110872
#        130647
#        150160
#        164322
#
# Disc length: 2412 seconds
#
# Revision: 2
# Processed by: cddbd v1.5.2PL0 Copyright (c) Steve Scherf et al.
# Submitted via: ExactAudioCopy v1.0b3
#
DISCID=62096a09
DTITLE=James Cotton - Live From Chicago - Mr. Superharp Himself
DYEAR=1986
DGENRE=Blues
TTITLE0=Here I Am ( Knockin' At Your Door )
TTITLE1=Part Time Love
TTITLE2=Just To Be With You
TTITLE3=Hard Headed
TTITLE4=When It Rains It Pours
TTITLE5=Cross Your Heart
TTITLE6=Come Back, Baby
TTITLE7=Born In Chicago
TTITLE8=The Midnight Creeper
EXTD=
EXTT0=
EXTT1=
EXTT2=
EXTT3=
EXTT4=
EXTT5=
EXTT6=
EXTT7=
EXTT8=
PLAYORDER=
